# xmcd CD database file
#
# Track frame offsets:
#	150
#	29706
#	49983
#	71107
#	85751
#	88642
#	119443
#	149288
#
# Disc length: 2385 seconds
#
# Revision: 1
# Processed by: cddbd v1.5.1PL0 Copyright (c) Steve Scherf et al.
# Submitted via: CDex 1.51
#
DISCID=73094f08
DTITLE=Aki and Kuniko - HA
DYEAR=2003
DGENRE=Jazz
TTITLE0=HA
TTITLE1=Jimi´s Spirit Of Acoustic
TTITLE2=Suna No Shiro
TTITLE3=Flash Back
TTITLE4=Nyo-giji
TTITLE5=Kimigayo
TTITLE6=Trust
TTITLE7=Forest In Love
EXTD=YEAR: 2003
EXTT0=
EXTT1=
EXTT2=
EXTT3=
EXTT4=
EXTT5=
EXTT6=
EXTT7=
PLAYORDER=
